<svg width="26" height="18" viewBox="0 0 26 18" fill="none" xmlns="http://www.w3.org/2000/svg">
<path d="M22.75 0H3.25C1.45519 0 0 1.456 0 3.25V13.8125C0 15.6073 1.45519 17.0625 3.25 17.0625H22.75C24.5448 17.0625 26 15.6073 26 13.8125V3.25C26 1.456 24.5448 0 22.75 0ZM1.625 4.26562L7.31169 8.53125L1.625 12.7969V4.26562ZM24.375 13.8125C24.375 14.7095 23.6454 15.4375 22.75 15.4375H3.25C2.35381 15.4375 1.625 14.7095 1.625 13.8125L7.9885 9.03906L11.5375 11.7016C11.9706 12.025 12.4849 12.1891 13 12.1891C13.5143 12.1891 14.0286 12.0258 14.4617 11.7016L18.0115 9.03906L24.375 13.8125ZM24.375 12.7969L18.6875 8.53125L24.375 4.26562V12.7969ZM13.9742 11.0516C13.6906 11.2645 13.3542 11.3766 13 11.3766C12.6458 11.3766 12.3086 11.2637 12.025 11.0516L1.625 3.25C1.625 2.35381 2.35381 1.625 3.25 1.625H22.75C23.6454 1.625 24.375 2.35381 24.375 3.25L13.9742 11.0516Z" fill="#4F4F4F"/>
</svg>
