<svg width="32" height="32" viewBox="0 0 32 32" fill="none" xmlns="http://www.w3.org/2000/svg">
<path d="M15.962 31.9806C24.5889 31.9806 31.5824 24.8215 31.5824 15.9903C31.5824 7.1591 24.5889 0 15.962 0C7.33514 0 0.341675 7.1591 0.341675 15.9903C0.341675 24.8215 7.33514 31.9806 15.962 31.9806Z" fill="#9E8CFC"/>
<path d="M11.0497 30.1693C11.6887 30.39 13.8346 31.0961 13.9259 30.4057C13.9754 30.0268 12.8429 29.6386 11.3096 28.8167C9.12893 27.6505 7.13397 26.1591 5.39166 24.3925C2.84854 21.8693 1.38622 18.4366 1.31948 14.8334C1.18952 9.9959 3.05851 6.08521 6.13276 3.56158C2.37333 6.49766 0.122496 10.9923 0.00592228 15.7962C-0.0853614 19.2951 0.881627 22.243 2.69802 24.9263C3.26205 25.6635 3.92137 26.3206 4.6583 26.8801C6.39888 28.2124 8.94399 29.4445 11.0497 30.1677" fill="white"/>
<path d="M31.7974 12.3254C30.8289 7.71651 27.8181 4.48996 23.7908 2.21055C26.8774 4.4289 31.2095 9.14583 28.6489 13.307C26.4828 16.64 21.2224 15.9872 18.3369 14.4029C14.9146 12.5242 10.632 8.29732 14.8558 4.16589C17.5943 1.49197 26.3049 4.48996 24.7717 8.48675C23.8774 10.8116 20.3962 10.2949 18.8305 9.15836C17.6763 8.31924 16.7047 6.87739 17.2199 5.38857C17.3839 4.91108 17.3607 4.17059 16.6938 4.71539C16.2018 5.12243 15.9465 5.79248 15.8599 6.41869C15.1312 11.6303 24.3075 15.671 27.0306 10.6284C28.4431 8.01083 26.1533 4.20973 23.2709 2.65359C21.1048 1.47945 18.8506 0.654414 16.0873 0.854801C11.6686 1.16791 7.96154 3.9702 7.49584 8.53841C7.03168 13.0784 10.0317 17.1645 13.5639 19.6083C17.2771 22.1757 22.2683 23.8681 26.8356 22.337C30.9294 20.964 32.6205 16.2095 31.7974 12.3286" fill="white"/>
</svg>
